<?xml version="1.0" standalone="no"?>
<!DOCTYPE svg PUBLIC "-//W3C//DTD SVG 1.1//EN" "http://www.w3.org/Graphics/SVG/1.1/DTD/svg11.dtd" >
<svg xmlns="http://www.w3.org/2000/svg">
<metadata>Generated by IcoMoon</metadata>
<defs>
<font id="proudsmart" horiz-adv-x="1024">
<font-face units-per-em="1024" ascent="960" descent="-64" />
<missing-glyph horiz-adv-x="1024" />
<glyph unicode="&#x20;" horiz-adv-x="512" d="" />
<glyph unicode="&#xe900;" glyph-name="air-humidity" d="M836.267 298.667v0c0 4.267 0 8.533 0 12.8s0 4.267 0 8.533v0c-4.267 17.067-12.8 34.133-17.067 51.2l-277.333 558.933c-8.533 21.333-29.867 29.867-51.2 25.6-12.8-4.267-21.333-12.8-25.6-25.6l-264.533-563.2c-8.533-17.067-12.8-34.133-12.8-55.467-25.6-179.2 98.133-345.6 277.333-371.2s345.6 98.133 371.2 277.333c4.267 17.067 4.267 34.133 4.267 51.2 0 12.8 0 21.333-4.267 29.867v0 0zM512 290.133c-64 68.267-166.4 89.6-256 55.467l256 533.333 247.467-520.533c12.8-29.867 21.333-59.733 21.333-89.6-64-51.2-162.133-72.533-268.8 21.333v0z" />
<glyph unicode="&#xe901;" glyph-name="air-temperature" d="M563.2 349.867v349.867c-4.267 25.6-29.867 46.933-59.733 42.667-25.6 4.267-51.2-17.067-59.733-42.667v-349.867c-68.267-34.133-102.4-115.2-68.267-192 34.133-72.533 115.2-106.667 192-72.533s106.667 115.2 72.533 192c-17.067 29.867-42.667 59.733-76.8 72.533v0 0zM699.733 422.4v379.733c0 46.933-21.333 85.333-59.733 115.2s-85.333 42.667-132.267 42.667c-46.933 0-93.867-12.8-136.533-42.667-34.133-25.6-59.733-68.267-59.733-115.2v-379.733c-115.2-106.667-119.467-285.867-12.8-401.067s285.867-119.467 401.067-12.8 119.467 285.867 12.8 401.067c-4.267 4.267-8.533 8.533-12.8 12.8v0zM503.467 12.8c-110.933 0-204.8 93.867-204.8 204.8 0 59.733 25.6 119.467 72.533 157.867l12.8 12.8v413.867c0 42.667 55.467 81.067 119.467 81.067s119.467-38.4 119.467-81.067v-413.867l12.8-12.8c89.6-72.533 98.133-204.8 25.6-290.133-38.4-46.933-93.867-72.533-157.867-72.533 0 0 0 0 0 0zM738.133 763.733h46.933c8.533 0 17.067 8.533 17.067 17.067s-8.533 17.067-17.067 17.067v0h-46.933c-8.533 0-17.067-8.533-17.067-17.067s4.267-17.067 17.067-17.067v0zM780.8 742.4h-46.933c-8.533 0-17.067-8.533-17.067-17.067s8.533-21.333 21.333-21.333h46.933c8.533 0 17.067 8.533 17.067 17.067s-8.533 21.333-21.333 21.333v0 0zM780.8 686.933h-46.933c-8.533 0-17.067-8.533-17.067-17.067s8.533-17.067 17.067-17.067h46.933c8.533 0 17.067 8.533 17.067 17.067s-4.267 17.067-17.067 17.067v0 0zM780.8 627.2h-46.933c-8.533 0-17.067-8.533-17.067-17.067s8.533-17.067 17.067-17.067h46.933c8.533 0 17.067 8.533 17.067 17.067 4.267 8.533-4.267 17.067-17.067 17.067v0 0zM780.8 571.733h-46.933c-8.533 0-17.067-8.533-17.067-17.067s8.533-17.067 17.067-17.067h46.933c8.533 0 17.067 8.533 17.067 17.067 4.267 8.533-4.267 17.067-17.067 17.067v0 0zM780.8 516.267h-46.933c-8.533 0-17.067-8.533-17.067-17.067s8.533-17.067 17.067-17.067h46.933c8.533 0 17.067 8.533 17.067 17.067 4.267 8.533-4.267 17.067-17.067 17.067v0 0z" />
<glyph unicode="&#xe902;" glyph-name="camera" d="M947.2 729.6h-209.067c0 0-4.267 4.267-4.267 51.2s-38.4 85.333-89.6 85.333h-273.067c-46.933 0-89.6-38.4-89.6-85.333s4.267-51.2 4.267-51.2h-213.333c-42.667 0-72.533-34.133-72.533-72.533v-554.667c0-38.4 29.867-68.267 72.533-68.267h878.933c38.4 0 72.533 29.867 72.533 68.267v554.667c-4.267 38.4-34.133 72.533-76.8 72.533zM512 170.667c-115.2 0-213.333 93.867-213.333 209.067s93.867 209.067 213.333 209.067c115.2 0 213.333-93.867 213.333-209.067s-98.133-209.067-213.333-209.067z" />
<glyph unicode="&#xe903;" glyph-name="sunshine" d="M699.733 448c0-103.682-84.051-187.733-187.733-187.733s-187.733 84.051-187.733 187.733c0 103.682 84.051 187.733 187.733 187.733s187.733-84.051 187.733-187.733zM494.933 704h29.867c8.533 0 17.067 8.533 17.067 17.067v221.867c0 8.533-8.533 17.067-17.067 17.067h-29.867c-8.533 0-17.067-8.533-17.067-17.067v-226.133c4.267-8.533 8.533-12.8 17.067-12.8zM529.067 192h-29.867c-8.533 0-17.067-8.533-17.067-17.067v-226.133c0-8.533 8.533-17.067 17.067-17.067h29.867c8.533 0 17.067 8.533 17.067 17.067v226.133c-4.267 8.533-8.533 17.067-17.067 17.067zM349.867 665.6c4.267-4.267 12.8-8.533 21.333-4.267l25.6 17.067c8.533 4.267 8.533 12.8 4.267 21.333l-110.933 192c-4.267 8.533-12.8 12.8-21.333 8.533l-25.6-17.067c-8.533-4.267-12.8-12.8-8.533-21.333l115.2-196.267zM674.133 226.133c-4.267 8.533-12.8 8.533-21.333 4.267l-25.6-17.067c-8.533-4.267-8.533-12.8-4.267-21.333l110.933-196.267c4.267-8.533 12.8-8.533 21.333-4.267l25.6 17.067c8.533 4.267 8.533 12.8 4.267 21.333l-110.933 196.267zM68.267 669.867l196.267-110.933c8.533-4.267 17.067 0 21.333 4.267l12.8 25.6c4.267 8.533 0 17.067-4.267 21.333l-196.267 110.933c-8.533 4.267-17.067 0-21.333-4.267l-17.067-25.6c-4.267-8.533 0-17.067 8.533-21.333zM955.733 226.133l-196.267 110.933c-8.533 4.267-17.067 0-21.333-4.267l-12.8-25.6c-4.267-8.533 0-17.067 4.267-21.333l196.267-110.933c8.533-4.267 17.067 0 21.333 4.267l17.067 25.6c4.267 8.533 0 17.067-8.533 21.333zM256 430.933v29.867c0 8.533-8.533 17.067-17.067 17.067h-221.867c-8.533 0-17.067-8.533-17.067-17.067v-29.867c0-8.533 8.533-17.067 17.067-17.067h226.133c4.267 4.267 12.8 8.533 12.8 17.067zM1006.933 477.867h-226.133c-8.533 0-17.067-8.533-17.067-17.067v-29.867c0-8.533 8.533-17.067 17.067-17.067h226.133c8.533 0 17.067 8.533 17.067 17.067v29.867c0 12.8-8.533 17.067-17.067 17.067zM298.667 307.2l-17.067 25.6c-4.267 8.533-12.8 8.533-21.333 4.267l-196.267-110.933c-8.533-4.267-8.533-12.8-4.267-21.333l17.067-25.6c4.267-8.533 12.8-8.533 21.333-4.267l196.267 110.933c4.267 4.267 8.533 12.8 4.267 21.333zM725.333 588.8l17.067-25.6c4.267-8.533 12.8-8.533 21.333-4.267l196.267 110.933c8.533 4.267 8.533 12.8 4.267 21.333l-17.067 25.6c-4.267 8.533-12.8 8.533-21.333 4.267l-196.267-110.933c-4.267-4.267-8.533-12.8-4.267-21.333zM396.8 217.6l-25.6 17.067c-8.533 4.267-17.067 0-21.333-4.267l-110.933-196.267c-4.267-8.533 0-17.067 4.267-21.333l25.6-17.067c8.533-4.267 17.067 0 21.333 4.267l110.933 196.267c8.533 8.533 4.267 17.067-4.267 21.333zM627.2 678.4l25.6-17.067c8.533-4.267 17.067 0 21.333 4.267l110.933 196.267c4.267 8.533 0 17.067-4.267 21.333l-25.6 17.067c-8.533 4.267-17.067 0-21.333-4.267l-110.933-196.267c-8.533-8.533-4.267-17.067 4.267-21.333z" />
<glyph unicode="&#xe904;" glyph-name="video-camera" d="M960 426.667v-89.6h-281.6l-85.333 149.333 294.4 170.667-149.333 260.267-738.133-435.2 192-226.133 337.067 196.267 106.667-183.467v-4.267h324.267v-85.333h64v247.467z" />
<glyph unicode="&#xe905;" glyph-name="water" d="M311.467 699.733h209.067v-81.067h102.4v81.067h192v89.6c-4.267 29.867-29.867 55.467-59.733 55.467s-59.733-25.6-64-55.467h-68.267c-4.267 21.333-21.333 34.133-42.667 34.133h-17.067c-21.333 0-38.4-17.067-42.667-34.133h-89.6c-4.267 29.867-29.867 51.2-59.733 51.2-34.133 0-59.733-29.867-59.733-64 0-4.267 0-8.533 0-8.533s0-68.267 0-68.267zM1006.933 452.267h-55.467c0 51.2 0 89.6 0 89.6-55.467 0-106.667-25.6-132.267-68.267h-98.133c-12.8 21.333-25.6 38.4-46.933 51.2v64h-209.067v-68.267c-17.067-12.8-34.133-29.867-46.933-51.2h-115.2c-25.6 38.4-72.533 68.267-123.733 68.267 0 0 0-42.667 0-89.6h-157.867c-12.8 0-21.333-8.533-21.333-21.333v-413.867c0-8.533 8.533-21.333 21.333-21.333h55.467c8.533 0 21.333 8.533 21.333 21.333v332.8h85.333c0-51.2 0-93.867 0-93.867 34.133 0 68.267 12.8 93.867 34.133h157.867c29.867-38.4 81.067-64 136.533-64s106.667 25.6 140.8 64h140.8c25.6-17.067 59.733-29.867 93.867-29.867 0 0 0 42.667 0 93.867h55.467c8.533 0 17.067 8.533 17.067 17.067v64c4.267 12.8-4.267 21.333-12.8 21.333z" />
<glyph unicode="&#xe906;" glyph-name="fan" d="M529.067 482.133c-24.652 9.481-53.096 0-62.578-24.652s0-53.096 24.652-62.578c24.652-9.481 53.096 0 62.578 24.652 7.585 28.444-1.896 53.096-24.652 62.578zM866.607 624.356l-15.17 18.963c-24.652 37.926-75.852 53.096-113.778 28.444l-109.985-85.333c-24.652-15.17-37.926-34.133-43.615-56.889-18.963 18.963-47.407 28.444-75.852 28.444-5.689 0-9.481 0-15.17 0 18.963 24.652 18.963 62.578 0 94.815l-53.096 128.948c-24.652 37.926-75.852 53.096-113.778 28.444l-18.963-15.17c-37.926-24.652-53.096-75.852-28.444-113.778l85.333-109.985c15.17-24.652 37.926-43.615 66.37-43.615-24.652-24.652-37.926-53.096-37.926-85.333 0-9.481 0-18.963 5.689-24.652-24.652 15.17-56.889 15.17-85.333-5.689l-128.948-53.096c-37.926-24.652-53.096-75.852-28.444-113.778l15.17-18.963c24.652-37.926 75.852-53.096 113.778-28.444l109.985 85.333c28.444 18.963 47.407 43.615 43.615 72.059 18.963-18.963 47.407-28.444 81.541-28.444h5.689c-15.17-24.652-9.481-56.889 5.689-85.333l53.096-128.948c24.652-37.926 75.852-53.096 113.778-28.444l18.963 15.17c37.926 24.652 53.096 75.852 28.444 113.778l-85.333 109.985c-15.17 24.652-34.133 37.926-56.889 43.615 18.963 18.963 34.133 47.407 34.133 81.541v0c0 5.689 0 5.689 0 9.481 24.652-15.17 56.889-9.481 81.541 5.689l128.948 53.096c28.444 17.067 41.719 70.163 18.963 108.089zM561.304 356.978c-5.689 0-9.481-5.689-15.17-5.689h-5.689c-9.481-5.689-18.963-5.689-34.133-5.689-53.096 0-94.815 43.615-94.815 94.815s43.615 94.815 94.815 94.815c34.133 0 62.578-18.963 81.541-43.615 0-5.689 5.689-9.481 5.689-9.481l5.689-5.689c5.689-9.481 5.689-24.652 9.481-37.926v0c-3.793-34.133-22.756-62.578-47.407-81.541zM512-64c-282.548 0-512 229.452-512 512s229.452 512 512 512 512-229.452 512-512-229.452-512-512-512zM512 886.044c-240.83 0-438.044-197.215-438.044-438.044s197.215-438.044 438.044-438.044 438.044 197.215 438.044 438.044-197.215 438.044-438.044 438.044z" />
<glyph unicode="&#xe907;" glyph-name="electric_motor02" d="M419.081 448c0 51.2 41.719 96.711 96.711 96.711 51.2 0 96.711-41.719 96.711-96.711 0-51.2-41.719-96.711-96.711-96.711-54.993 3.793-96.711 45.511-96.711 96.711v0 0zM843.852 815.881l-183.941-189.63c-30.341 26.548-72.059 45.511-117.57 51.2v282.548c-322.37 0-398.222-180.148-398.222-180.148l183.941-183.941c-30.341-36.030-45.511-75.852-51.2-128.948h-276.859c0-320.474 178.252-398.222 178.252-398.222l183.941 195.319c36.030-26.548 75.852-45.511 123.259-51.2v-276.859c322.37 0 400.119 178.252 400.119 178.252l-189.63 183.941c24.652 30.341 41.719 72.059 45.511 117.57h282.548c0 324.267-180.148 400.119-180.148 400.119v0zM512 303.881c-75.852 0-144.119 60.681-144.119 144.119 0 75.852 60.681 144.119 144.119 144.119 75.852 0 144.119-60.681 144.119-144.119 0-75.852-62.578-144.119-144.119-144.119v0zM747.141 372.148h30.341v-102.4h-30.341v102.4zM809.719 387.319h36.030v-128.948h-36.030v128.948zM879.881 402.489h45.511v-163.081h-45.511v163.081zM963.319 406.281h51.2v-174.459h-51.2v174.459zM331.852 212.859h102.4v-36.030h-102.4v36.030zM316.681 150.281h128.948v-36.030h-128.948v36.030zM301.511 80.119h163.081v-45.511h-163.081v45.511zM297.719-3.319h174.459v-51.2h-174.459v51.2zM240.83 626.252h30.341v-102.4h-30.341v102.4zM174.459 643.319h36.030v-128.948h-36.030v128.948zM92.919 658.489h45.511v-163.081h-45.511v163.081zM5.689 662.281h51.2v-174.459h-51.2v174.459zM599.23 709.689h102.4v-30.341h-102.4v30.341zM584.059 776.059h128.948v-36.030h-128.948v36.030zM568.889 857.6h163.081v-45.511h-163.081v45.511zM563.2 939.141h174.459v-51.2h-174.459v51.2z" />
<glyph unicode="&#xe908;" glyph-name="electric_motor" d="M798.341 192v458.904h-210.489v54.993c34.133 11.378 58.785 43.615 58.785 81.541 0 47.407-37.926 85.333-85.333 85.333s-85.333-37.926-85.333-85.333c0-37.926 24.652-70.163 58.785-81.541v-54.993h-208.593c-43.615 0-81.541-30.341-94.815-70.163h-9.481c-37.926 0-68.267-30.341-68.267-68.267v-54.993h-117.57c-18.963 0-36.030-15.17-36.030-36.030 0-18.963 15.17-36.030 36.030-36.030h117.57v-54.993c0-37.926 30.341-68.267 68.267-68.267h9.481c11.378-39.822 49.304-70.163 94.815-70.163h472.178zM227.556 307.674c-17.067 5.689-30.341 20.859-30.341 41.719v146.015c0 18.963 13.274 36.030 30.341 41.719v-229.452zM521.481 787.437c0 22.756 17.067 39.822 39.822 39.822s39.822-17.067 39.822-39.822-17.067-39.822-39.822-39.822c-22.756 0-39.822 17.067-39.822 39.822zM333.748 590.222h394.43c13.274 0 24.652-11.378 24.652-24.652s-11.378-24.652-24.652-24.652h-394.43c-13.274 0-24.652 11.378-24.652 24.652s9.481 24.652 24.652 24.652zM333.748 493.511h394.43c13.274 0 24.652-11.378 24.652-24.652s-11.378-24.652-24.652-24.652h-394.43c-13.274 0-24.652 11.378-24.652 24.652s9.481 24.652 24.652 24.652zM333.748 398.696h394.43c13.274 0 24.652-11.378 24.652-24.652s-11.378-24.652-24.652-24.652h-394.43c-13.274 0-24.652 11.378-24.652 24.652-1.896 13.274 9.481 24.652 24.652 24.652zM307.2 277.333c0 13.274 11.378 24.652 24.652 24.652h394.43c13.274 0 24.652-11.378 24.652-24.652s-11.378-24.652-24.652-24.652h-392.533c-15.17 0-26.548 11.378-26.548 24.652zM754.726 161.659h-360.296v-79.644h-132.741v-58.785h625.778v58.785h-132.741zM849.541 650.904v-458.904c96.711 3.793 174.459 85.333 174.459 182.044v92.919c0 98.607-77.748 178.252-174.459 183.941z" />
<glyph unicode="&#xe909;" glyph-name="Co2" d="M805.926 580.741c98.607 5.689 113.778 13.274 170.667-41.719 92.919 43.615 37.926 202.904-68.267 168.77 5.689 73.956-134.637 204.8-238.933 37.926 5.689-1.896 134.637-45.511 136.533-164.978zM671.289 745.719c0 0 0 0 0 0s0 0 0 0zM857.126 518.163l-111.881 3.793c-41.719 305.304-464.593 358.4-555.615-51.2l-43.615-1.896c-231.348-111.881-140.326-362.193-36.030-398.222v-1.896h752.83c178.252 47.407 216.178 352.711-5.689 449.422zM214.281 226.133c15.17-17.067 36.030-24.652 62.578-24.652 22.756 0 43.615 7.585 62.578 22.756v-43.615c-20.859-11.378-43.615-17.067-72.059-17.067-37.926 0-66.37 11.378-89.126 36.030s-34.133 54.993-34.133 92.919c0 41.719 13.274 75.852 37.926 102.4s56.889 39.822 98.607 39.822c24.652 0 43.615-3.793 60.681-11.378l1.896-45.511c-17.067 13.274-37.926 20.859-60.681 20.859-26.548 0-47.407-9.481-64.474-26.548-15.17-17.067-24.652-41.719-24.652-72.059s5.689-56.889 20.859-73.956zM603.022 199.585c-24.652-24.652-54.993-37.926-94.815-37.926-37.926 0-68.267 11.378-92.919 36.030-22.756 24.652-34.133 56.889-34.133 96.711v1.896c0 43.615 11.378 75.852 36.030 100.504 22.756 24.652 56.889 36.030 96.711 36.030s68.267-11.378 91.022-36.030c22.756-24.652 32.237-56.889 32.237-98.607 1.896-39.822-9.481-72.059-34.133-98.607zM857.126 163.556h-168.77c1.896 17.067 7.585 32.237 17.067 47.407s28.444 32.237 54.993 51.2c17.067 11.378 26.548 20.859 32.237 28.444 3.793 5.689 7.585 11.378 7.585 17.067s-1.896 11.378-7.585 15.17c-3.793 3.793-9.481 5.689-17.067 5.689s-13.274-1.896-17.067-7.585c-3.793-3.793-7.585-13.274-9.481-24.652l-56.889 3.793c1.896 15.17 5.689 28.444 11.378 36.030 5.689 9.481 13.274 15.17 24.652 20.859 11.378 3.793 24.652 7.585 43.615 7.585s34.133-1.896 45.511-7.585c11.378-3.793 18.963-11.378 26.548-20.859 5.689-9.481 9.481-18.963 9.481-30.341s-3.793-24.652-11.378-36.030c-7.585-11.378-20.859-22.756-39.822-36.030-11.378-7.585-18.963-13.274-22.756-17.067s-7.585-7.585-13.274-11.378h87.23v-41.719zM512 394.904c-24.652 0-45.511-9.481-60.681-26.548s-22.756-41.719-22.756-72.059h1.896c0-30.341 7.585-53.096 22.756-70.163s34.133-26.548 60.681-26.548c26.548 0 45.511 7.585 60.681 24.652 13.274 17.067 20.859 41.719 20.859 72.059s-7.585 54.993-20.859 72.059c-17.067 18.963-36.030 26.548-62.578 26.548z" />
<glyph unicode="&#xe90a;" glyph-name="soil_temperature" d="M398.222 470.756v280.652c0 18.963-20.859 36.030-47.407 36.030s-47.407-15.17-47.407-36.030v-280.652c-58.785-26.548-85.333-94.815-58.785-151.704s94.815-85.333 151.704-58.785 85.333 94.815 58.785 151.704c-9.481 24.652-30.341 45.511-56.889 58.785v0zM508.207 529.541v305.304c0 36.030-18.963 70.163-49.304 91.022-30.341 22.756-68.267 34.133-106.193 34.133s-75.852-11.378-106.193-34.133c-30.341-20.859-47.407-54.993-49.304-91.022v-305.304c-91.022-85.333-94.815-229.452-9.481-320.474s229.452-94.815 320.474-9.481 94.815 229.452 9.481 320.474c-3.793 3.793-5.689 5.689-9.481 9.481v0 0zM352.711 197.689c-91.022 0-164.978 73.956-164.978 164.978 0 49.304 22.756 96.711 60.681 127.052l11.378 9.481v335.644c0 34.133 43.615 64.474 94.815 64.474s94.815-28.444 94.815-64.474v-333.748l11.378-9.481c70.163-58.785 79.644-163.081 22.756-233.244-36.030-37.926-81.541-60.681-130.844-60.681v0zM536.652 802.607h36.030c7.585 0 15.17 7.585 15.17 15.17s-7.585 15.17-15.17 15.17h-36.030c-7.585 0-15.17-7.585-15.17-15.17 0-9.481 7.585-15.17 15.17-15.17v0zM574.578 785.541h-36.030c-7.585 0-15.17-7.585-15.17-15.17s7.585-15.17 15.17-15.17h36.030c7.585 0 15.17 7.585 15.17 15.17 0 9.481-7.585 15.17-15.17 15.17v0zM574.578 740.030h-36.030c-7.585 0-15.17-7.585-15.17-15.17s7.585-15.17 15.17-15.17h36.030c7.585 0 15.17 7.585 15.17 15.17s-7.585 15.17-15.17 15.17v0zM574.578 694.519h-36.030c-7.585 0-15.17-7.585-15.17-15.17s7.585-15.17 15.17-15.17h36.030c7.585 0 15.17 7.585 15.17 15.17s-7.585 15.17-15.17 15.17v0zM574.578 647.111h-36.030c-7.585 0-15.17-7.585-15.17-15.17s7.585-15.17 15.17-15.17h36.030c7.585 0 15.17 7.585 15.17 15.17s-7.585 15.17-15.17 15.17v0zM574.578 601.6h-36.030c-7.585 0-15.17-7.585-15.17-15.17s7.585-15.17 15.17-15.17h36.030c7.585 0 15.17 7.585 15.17 15.17 0 9.481-7.585 15.17-15.17 15.17v0zM22.756-64h978.489c0 0-53.096 174.459-284.444 174.459-259.793 1.896-694.044-174.459-694.044-174.459z" />
<glyph unicode="&#xe90b;" glyph-name="soil_humidity" d="M24.652-64h976.593c0 0-53.096 174.459-284.444 174.459-259.793 1.896-692.148-174.459-692.148-174.459zM629.57 427.141v0c0 3.793-1.896 7.585-1.896 11.378 0 1.896 0 5.689-1.896 7.585v0c-3.793 13.274-9.481 28.444-15.17 41.719l-216.178 447.526c-32.237 56.889-60.681 0-60.681 0l-212.385-455.111c-5.689-13.274-9.481-28.444-11.378-43.615-20.859-144.119 79.644-276.859 221.867-297.719 144.119-20.859 276.859 79.644 295.822 223.763 1.896 13.274 1.896 24.652 1.896 37.926 1.896 9.481 1.896 17.067 0 26.548v0zM369.778 457.481c-62.578 56.889-121.363 51.2-163.081 36.030l163.081 339.437 157.393-331.852c9.481-18.963 13.274-37.926 15.17-58.785-41.719-30.341-104.296-45.511-172.563 15.17v0z" />
<glyph unicode="&#xe90c;" glyph-name="irrigation" d="M877.037 871.852c-5.926 47.407-43.704 83.333-89.259 83.333s-83.333-36.296-89.259-83.333h-102.593c-6.667 31.111-32.593 55.556-63.704 55.556h-25.185c-31.111 0-57.037-23.704-62.593-55.556h-131.111c-6.296 47.407-43.704 83.333-89.63 83.333-49.63 0-90-42.963-90-96.296 0-5.556 0.37-10.741 1.111-15.926v-108.519h308.148v-122.963h154.074v122.963h280.741v137.407h-0.741zM1024.074 460.741c-82.593 0-155.185-44.074-195.556-109.63h-87.407c-17.407 31.852-40.741 59.63-68.519 81.852v109.63h-307.037v-109.63c-27.778-22.222-51.111-50-68.519-81.852h-111.852c-38.519 65.926-107.037 109.63-185.185 109.63 5.185-2.593-1.111-471.111 0-465.556 52.963 0 101.852 20.37 139.63 54.074h175.185c46.667-65.926 120.741-108.519 203.333-108.519 83.704 0 158.148 42.593 204.815 108.519h159.259c38.889-30.741 88.148-48.889 141.481-48.889 0.37 3.704-4.815 457.407 0.37 460.37z" />
<glyph unicode="&#xe90d;" glyph-name="spraying" d="M1.481 615.185c0-44.815 34.815-81.481 77.037-81.481h868.519c42.963 0 77.037 36.667 77.037 81.481s-34.815 81.481-77.037 81.481h-868.519c-41.852-1.481-77.037-37.778-77.037-81.481v0zM383.333 681.111v32.222c0 17.778 14.074 32.222 31.111 32.222h185.926c17.037 0 31.111-14.444 31.111-32.222v-32.222h61.852v32.222c0 53.333-41.852 97.037-92.963 97.037h-185.926c-51.852 0-92.963-43.704-92.963-97.037v-32.222h61.852zM556.296 800.741v106.296c0 28.889-22.963 52.963-51.111 52.963s-50.741-24.074-50.741-52.963v-106.296c0-29.259 22.963-52.963 50.741-52.963s51.111 23.704 51.111 52.963v0zM290.37 390.741l-34.074-127.037c-4.444-16.296 4.815-33.333 20.37-37.778s31.852 5.185 36.296 21.481l34.074 127.037c4.444 16.296-4.815 33.333-20.37 37.778s-31.852-5.185-36.296-21.481v0zM224.444 143.333l-34.074-127.037c-4.444-16.296 4.815-33.333 20.37-37.778s31.852 5.185 36.296 21.481l34.074 127.037c4.444 16.296-4.815 33.333-20.37 37.778s-31.852-5.185-36.296-21.481v0zM178.519 438.889l-59.259-116.296c-7.407-14.815-2.222-33.704 12.222-41.481s32.222-2.222 40 12.593l59.259 116.296c7.407 14.815 2.222 33.704-12.222 41.481-14.444 8.148-32.593 2.222-40-12.593v0zM62.963 212.222l-59.259-116.296c-7.407-14.815-2.222-33.704 12.222-41.481s32.222-2.222 40 12.593l59.259 116.296c7.407 14.815 2.222 33.704-12.222 41.481-14.444 8.148-32.593 2.593-40-12.593v0zM417.037 355.926l-16.667-130.741c-2.222-16.667 9.259-32.222 25.185-34.444s31.111 9.63 32.963 26.296l16.667 130.741c2.222 16.667-9.259 32.222-25.185 34.444s-30.741-9.63-32.963-26.296v0zM384.444 101.481l-16.667-130.741c-2.222-16.667 9.259-32.222 25.185-34.444s31.111 9.63 32.963 26.296l16.667 130.741c2.222 16.667-9.259 32.222-25.185 34.444-15.926 2.593-31.111-9.63-32.963-26.296v0zM733.704 390.741c-4.444 16.296-20.741 25.926-36.296 21.481s-24.815-21.481-20.37-37.778l34.074-127.037c4.444-16.296 20.741-25.926 36.296-21.481s24.815 21.481 20.37 37.778l-34.074 127.037zM799.63 143.333c-4.444 16.296-20.741 25.926-36.296 21.481s-24.815-21.481-20.37-37.778l34.074-127.037c4.444-16.296 20.741-25.926 36.296-21.481s24.815 21.481 20.37 37.778l-34.074 127.037zM845.556 438.889c-7.407 14.815-25.556 20.741-40 12.593-14.444-7.778-19.63-26.667-12.222-41.481l59.259-116.296c7.407-14.815 25.556-20.741 40-12.593 14.444 7.778 19.63 26.667 12.222 41.481l-59.259 116.296zM961.111 212.222c-7.407 14.815-25.556 20.741-40 12.593-14.444-7.778-19.63-26.667-12.222-41.481l59.259-116.296c7.407-14.815 25.556-20.741 40-12.593 14.444 7.778 19.63 26.667 12.222 41.481l-59.259 116.296zM607.037 355.926c-2.222 16.667-17.037 28.519-32.963 26.296s-27.407-17.778-25.185-34.444l16.667-130.741c2.222-16.667 17.037-28.519 32.963-26.296s27.407 17.778 25.185 34.444l-16.667 130.741zM639.63 101.481c-2.222 16.667-17.037 28.519-32.963 26.296s-27.407-17.778-25.185-34.444l16.667-130.741c2.222-16.667 17.037-28.519 32.963-26.296s27.407 17.778 25.185 34.444l-16.667 130.741z" />
<glyph unicode="&#xe90e;" glyph-name="chart_brokenline" d="M920 960h-808.148c-60.37 0-111.852-51.111-111.852-111.111v-793.704c0-68.148 51.481-119.63 111.852-119.63h799.63c60 0 111.852 51.111 111.852 111.111v802.222c8.148 60-43.333 111.111-103.333 111.111zM920 550.37l-343.704-384.074-232.222 221.852-232.222-230.37v170.741l232.222 230.37 232.222-230.37 343.704 384.074v-162.222z" />
<glyph unicode="&#xe90f;" glyph-name="userinfo" d="M238.933 686.933c0-149.333 119.467-273.067 273.067-273.067s273.067 119.467 273.067 273.067-123.733 273.067-273.067 273.067-273.067-119.467-273.067-273.067zM938.667 128c-4.267 12.8-8.533 25.6-17.067 38.4-21.333 42.667-38.4 68.267-76.8 106.667-85.333 85.333-204.8 136.533-332.8 136.533-179.2 0-337.067-102.4-413.867-251.733-8.533-12.8-12.8-25.6-17.067-42.667-8.533-29.867-12.8-72.533 0-98.133s34.133-51.2 59.733-64c29.867-8.533 64-17.067 102.4-17.067v0h537.6c38.4 0 72.533 8.533 98.133 21.333s46.933 29.867 59.733 59.733c4.267 12.8 12.8 34.133 12.8 55.467-4.267 21.333-8.533 42.667-12.8 55.467z" />
<glyph unicode="&#xe910;" glyph-name="user" d="M640 264.533c-25.6 4.267-25.6 72.533-25.6 72.533s72.533 72.533 89.6 170.667c42.667 0 72.533 106.667 25.6 140.8 4.267 46.933 55.467 311.467-217.6 311.467s-221.867-264.533-217.6-307.2c-42.667-38.4-17.067-140.8 25.6-140.8 17.067-98.133 89.6-170.667 89.6-170.667s0-68.267-25.6-72.533c-81.067-12.8-384-145.067-384-328.533h1024c0 179.2-302.933 311.467-384 324.267v0z" />
<glyph unicode="&#xe911;" glyph-name="group" d="M307.2 584.533c0-115.2 93.867-204.8 204.8-204.8 115.2 0 204.8 93.867 204.8 204.8s-89.6 204.8-204.8 204.8-204.8-89.6-204.8-204.8v0zM682.667 789.333c0-76.8 59.733-136.533 136.533-136.533s136.533 59.733 136.533 136.533-59.733 136.533-136.533 136.533c-72.533 0-136.533-59.733-136.533-136.533zM960 652.8c-29.867 0-76.8-76.8-204.8-38.4 0 0 17.067-98.133-42.667-166.4 0 0 93.867 0 140.8-68.267 0 0 42.667 0 72.533 0s102.4 12.8 102.4 85.333c-4.267 68.267-4.267 187.733-68.267 187.733zM64 789.333c0-76.8 59.733-136.533 136.533-136.533s140.8 59.733 140.8 136.533-64 136.533-136.533 136.533-140.8-59.733-140.8-136.533zM315.733 448c-59.733 68.267-42.667 166.4-42.667 166.4-132.267-38.4-174.933 38.4-209.067 38.4-64 0-64-119.467-64-187.733s72.533-85.333 102.4-85.333 72.533 0 72.533 0c46.933 68.267 140.8 68.267 140.8 68.267zM708.267 409.6c-29.867 0-85.333-76.8-187.733-76.8-8.533 0-12.8 0-17.067 0-106.667 0-157.867 76.8-187.733 76.8-34.133 0-174.933-8.533-174.933-298.667 0-162.133 145.067-140.8 157.867-140.8 8.533 0 217.6 0 217.6 0v0c0 0 204.8 0 217.6 0s157.867-21.333 157.867 140.8c-8.533 294.4-149.333 298.667-183.467 298.667z" />
<glyph unicode="&#xe912;" glyph-name="center" d="M0 89.6c0-85.333 68.267-153.6 153.6-153.6h226.133l209.067 209.067c-12.8 25.6-17.067 46.933-17.067 76.8 0 102.4 85.333 183.467 187.733 183.467 55.467 0 110.933-25.6 145.067-68.267 25.6-29.867 42.667-72.533 42.667-119.467 0-72.533-42.667-136.533-110.933-166.4-42.667-21.333-110.933-25.6-153.6 4.267l-119.467-119.467h302.933c85.333 0 157.867 68.267 157.867 153.6v712.533c0 85.333-72.533 157.867-157.867 157.867h-546.133v-106.667c0 0 25.6-8.533 25.6-12.8 12.8-4.267 21.333-12.8 29.867-17.067 34.133-21.333 55.467-59.733 98.133-72.533 12.8-4.267 59.733-4.267 76.8 0 25.6 8.533 42.667 25.6 59.733 38.4 38.4 38.4 85.333 68.267 145.067 68.267 55.467 0 119.467-29.867 149.333-76.8 46.933-64 46.933-162.133 0-226.133-34.133-46.933-89.6-72.533-149.333-72.533-38.4 0-76.8 12.8-106.667 34.133-34.133 25.6-59.733 59.733-102.4 76.8-12.8 4.267-64 4.267-76.8 0-42.667-12.8-68.267-51.2-102.4-76.8-29.867-21.333-64-34.133-102.4-34.133-59.733 0-115.2 29.867-149.333 81.067s-46.933 115.2-25.6 170.667c21.333 55.467 59.733 98.133 110.933 115.2v110.933h-46.933c-85.333 0-153.6-72.533-153.6-157.867v-712.533zM759.467 307.2c46.933 0 85.333-38.4 85.333-85.333s-38.4-85.333-85.333-85.333c-46.933 0-85.333 38.4-85.333 85.333 4.267 46.933 42.667 85.333 85.333 85.333v0zM268.8 755.2c42.667 0 81.067-34.133 81.067-81.067 0-42.667-34.133-81.067-81.067-81.067-42.667 0-81.067 34.133-81.067 81.067s38.4 81.067 81.067 81.067v0zM755.2 755.2c42.667 0 81.067-34.133 81.067-81.067 0-42.667-34.133-81.067-81.067-81.067-42.667 0-81.067 34.133-81.067 81.067s34.133 81.067 81.067 81.067v0z" />
<glyph unicode="&#xe913;" glyph-name="server" d="M358.4 721.067c0 98.133-81.067 179.2-179.2 179.2s-179.2-81.067-179.2-179.2c0-46.933 17.067-89.6 51.2-123.733-8.533-34.133-12.8-72.533-12.8-110.933 0-170.667 89.6-315.733 221.867-401.067l34.133 149.333c-72.533 59.733-119.467 153.6-119.467 256 0 17.067 0 38.4 4.267 55.467 98.133 0 179.2 76.8 179.2 174.933v0 0 0zM512 819.2c59.733 0 119.467-17.067 170.667-46.933-8.533-21.333-12.8-42.667-12.8-64 0-98.133 81.067-179.2 179.2-179.2s179.2 81.067 179.2 179.2c0 98.133-81.067 179.2-179.2 179.2-21.333 0-46.933-4.267-64-12.8-76.8 51.2-170.667 85.333-268.8 85.333-68.267 0-132.267-12.8-192-38.4l81.067-119.467c29.867 12.8 68.267 17.067 106.667 17.067v0 0 0zM840.533 473.6c-4.267-119.467-76.8-226.133-174.933-277.333-29.867 59.733-89.6 98.133-157.867 98.133-98.133 0-179.2-81.067-179.2-179.2s81.067-179.2 179.2-179.2c72.533 0 136.533 46.933 166.4 110.933 179.2 64 307.2 238.933 307.2 439.467 0 8.533 0 21.333 0 29.867l-140.8-42.667z" />
<glyph unicode="&#xe914;" glyph-name="app" d="M392.533 494.933h-320c-38.4 0-72.533 29.867-72.533 72.533v324.267c0 34.133 34.133 68.267 72.533 68.267h324.267c38.4 0 72.533-34.133 72.533-72.533v-324.267c-4.267-38.4-34.133-68.267-76.8-68.267zM392.533-64h-320c-38.4 0-72.533 34.133-72.533 72.533v324.267c0 38.4 34.133 72.533 72.533 72.533h324.267c38.4 0 72.533-34.133 72.533-72.533v-324.267c-4.267-38.4-34.133-72.533-76.8-72.533zM938.667 874.667v-294.4h-294.4v294.4h294.4zM951.467 960h-324.267c-38.4 0-72.533-34.133-72.533-72.533v-324.267c0-38.4 34.133-72.533 72.533-72.533h324.267c38.4 0 72.533 34.133 72.533 72.533v324.267c0 38.4-34.133 72.533-72.533 72.533v0zM951.467-64h-324.267c-38.4 0-72.533 34.133-72.533 72.533v324.267c0 38.4 34.133 72.533 72.533 72.533h324.267c38.4 0 72.533-34.133 72.533-72.533v-324.267c0-38.4-34.133-72.533-72.533-72.533z" />
<glyph unicode="&#xe915;" glyph-name="mushroom" d="M512 960c-281.6 0-512-230.4-512-512s230.4-512 512-512 512 230.4 512 512-230.4 512-512 512zM516.267 192c-4.267-8.533-8.533-12.8-17.067-12.8h-145.067c-8.533 0-12.8 4.267-17.067 12.8 0 4.267-68.267 162.133-8.533 328.533h-119.467c-12.8 0-21.333 8.533-21.333 17.067 0 4.267 0 4.267 0 8.533 0 21.333 4.267 38.4 8.533 55.467 8.533 17.067 21.333 34.133 34.133 46.933s25.6 21.333 42.667 29.867c59.733 25.6 106.667 38.4 153.6 38.4s93.867-12.8 153.6-38.4c17.067-8.533 29.867-17.067 46.933-25.6 12.8-12.8 21.333-29.867 29.867-46.933s12.8-38.4 12.8-55.467c0 0 0-4.267 0-8.533-4.267-8.533-12.8-17.067-21.333-17.067h-119.467c4.267-12.8 8.533-25.6 12.8-38.4-21.333-8.533-38.4-21.333-55.467-38.4s-29.867-38.4-38.4-59.733-12.8-42.667-12.8-68.267c0-4.267 0-8.533 0-12.8 0-34.133 29.867-59.733 64-59.733h34.133c-8.533-34.133-17.067-51.2-17.067-55.467zM836.267 315.733c0-8.533-8.533-17.067-17.067-17.067h-76.8l-21.333-98.133c0-8.533-8.533-12.8-17.067-12.8h-93.867c-8.533 0-17.067 4.267-17.067 12.8l-21.333 98.133h-76.8c-8.533 0-17.067 8.533-17.067 17.067 0 4.267 0 4.267 0 8.533 0 17.067 0 34.133 8.533 51.2s17.067 29.867 29.867 42.667c8.533 8.533 17.067 17.067 29.867 21.333 4.267 0 8.533 4.267 12.8 4.267 25.6 12.8 59.733 21.333 98.133 21.333s72.533-8.533 98.133-21.333c17.067-8.533 29.867-17.067 42.667-29.867s21.333-25.6 29.867-42.667c4.267-17.067 8.533-34.133 8.533-46.933 0-4.267 0-4.267 0-8.533z" />
<glyph unicode="&#xe916;" glyph-name="planting" d="M512 960c-281.6 0-512-230.4-512-512s230.4-512 512-512 512 230.4 512 512-230.4 512-512 512zM593.067 622.933c12.8 8.533 25.6 12.8 38.4 17.067s29.867 4.267 42.667 0c12.8-4.267 25.6-8.533 29.867-17.067 4.267-4.267 4.267-4.267 8.533-8.533 0-4.267 0-4.267 0-4.267s0 0-4.267 0c0 0-4.267-4.267-8.533-4.267-4.267-4.267-8.533-12.8-17.067-21.333-12.8-17.067-25.6-29.867-46.933-42.667-8.533-4.267-21.333-12.8-29.867-12.8s-21.333-4.267-34.133-8.533c-8.533 0-29.867-4.267-38.4-4.267 4.267 8.533 12.8 17.067 17.067 21.333s8.533 8.533 12.8 17.067 8.533 8.533 12.8 12.8 21.333 8.533 25.6 8.533c4.267 4.267 8.533 4.267 12.8 8.533 4.267 0 8.533 4.267 12.8 4.267s8.533 0 8.533 4.267c4.267 0 8.533 0 8.533 0s-4.267 0-8.533 0c-4.267 0-8.533 0-12.8 0s-8.533-4.267-12.8-4.267c-4.267 0-8.533-4.267-17.067-8.533 4.267-4.267-4.267-4.267-8.533-8.533s-12.8-8.533-17.067-12.8-8.533-8.533-12.8-17.067c-4.267-4.267-8.533-12.8-17.067-17.067 0 0 0 0 0 4.267 0 8.533 0 21.333 4.267 29.867s8.533 21.333 17.067 34.133 25.6 21.333 34.133 29.867zM456.533 503.467c0 4.267-4.267 12.8-4.267 12.8s0 4.267 0 4.267c4.267-8.533 12.8-12.8 17.067-21.333 8.533 0 17.067 4.267 29.867 4.267 0 0 4.267 0 4.267 0 0 8.533 4.267 12.8 4.267 21.333 0 4.267 4.267 17.067 8.533 17.067 0 0 4.267 4.267 4.267 4.267 0-17.067-4.267-29.867-4.267-42.667 4.267 0 8.533 0 8.533 0 4.267 8.533 12.8 17.067 17.067 25.6 0 0 0-4.267 0-4.267 0-4.267-4.267-8.533-4.267-12.8-4.267-4.267-4.267-8.533-4.267-8.533 68.267-12.8 123.733-55.467 149.333-119.467-4.267 4.267-8.533 4.267-12.8 8.533-34.133 21.333-76.8 25.6-123.733 4.267-17.067-8.533-34.133-8.533-51.2-4.267-29.867 8.533-59.733 8.533-89.6 8.533-17.067 0-34.133-8.533-46.933-21.333-4.267-4.267-4.267-8.533-4.267-12.8-17.067 4.267-21.333 4.267-29.867 4.267h-4.267c21.333 64 76.8 115.2 145.067 128-4.267 0-4.267 4.267-8.533 4.267zM413.867 733.867c0 12.8 4.267 25.6 0 34.133 0 4.267 0 8.533 0 12.8s0 4.267 0 4.267 0 0 4.267 0 8.533 0 12.8 0c12.8 0 25.6-4.267 42.667-12.8s29.867-21.333 42.667-38.4 21.333-34.133 25.6-51.2 8.533-38.4 8.533-55.467c0-17.067-4.267-34.133-12.8-51.2s-12.8-25.6-21.333-34.133c0 0 0 0-4.267-4.267 0 8.533 0 21.333 0 29.867s0 17.067 0 25.6 0 25.6-4.267 34.133-4.267 17.067-8.533 21.333c-4.267 8.533-8.533 12.8-8.533 21.333-4.267 4.267-8.533 12.8-8.533 17.067-4.267 4.267-8.533 8.533-8.533 12.8-4.267 4.267-8.533 8.533-8.533 8.533s4.267-4.267 8.533-12.8c4.267-4.267 4.267-8.533 8.533-12.8s4.267-8.533 8.533-17.067c4.267-4.267 4.267-12.8 8.533-21.333 0-8.533 4.267-17.067 4.267-21.333 0-8.533 4.267-17.067 4.267-25.6s0-17.067 0-25.6c0-12.8 0-25.6-4.267-38.4-8.533 4.267-25.6 25.6-34.133 34.133-8.533 12.8-17.067 21.333-25.6 34.133s-12.8 25.6-17.067 42.667c-12.8 34.133-12.8 64-12.8 89.6zM281.6 614.4c0 0 4.267 4.267 8.533 8.533s17.067 12.8 29.867 17.067c12.8 4.267 25.6 4.267 42.667 0s25.6-12.8 38.4-21.333c12.8-8.533 21.333-17.067 29.867-29.867s12.8-21.333 17.067-34.133c4.267-12.8 4.267-21.333 4.267-29.867 0 0 0 0 0-4.267-4.267 4.267-8.533 12.8-17.067 17.067 0 8.533-8.533 12.8-12.8 17.067s-8.533 8.533-12.8 12.8c-8.533 4.267-12.8 4.267-17.067 8.533s-12.8 4.267-17.067 8.533c-4.267 0-8.533 4.267-12.8 4.267s-8.533 0-12.8 0c-4.267 0-8.533 0-8.533 0s4.267 0 8.533 0c4.267 0 4.267 0 8.533-4.267s8.533-4.267 12.8-4.267 12.8-4.267 17.067-8.533c4.267-4.267 8.533-8.533 12.8-12.8s8.533-8.533 12.8-12.8c8.533 0 12.8-8.533 17.067-12.8 8.533-8.533 12.8-17.067 17.067-21.333-8.533 0-29.867 4.267-38.4 4.267-12.8 0-21.333 4.267-34.133 8.533s-21.333 8.533-29.867 12.8c-17.067 12.8-34.133 29.867-46.933 42.667 0 8.533-8.533 12.8-12.8 21.333 0 0-4.267 4.267-4.267 4.267 0 4.267-4.267 4.267 0 8.533-4.267-4.267 0-4.267 0 0zM669.867 179.2c-25.6 46.933-68.267 68.267-123.733 68.267-29.867 0-59.733 0-89.6 0-25.6 0-51.2 4.267-76.8 17.067-12.8 4.267-21.333 8.533-34.133 12.8-29.867 8.533-59.733 17.067-89.6 21.333-42.667 8.533-51.2 17.067-81.067 29.867-4.267 0-12.8 0-12.8 8.533s-4.267 12.8 0 17.067c8.533 4.267 17.067 8.533 29.867 8.533 0 0 4.267 0 4.267 0 25.6 12.8 25.6 4.267 46.933 4.267l68.267-8.533c12.8 0 102.4-21.333 106.667-12.8-25.6 0-59.733 21.333-55.467 25.6 8.533 8.533 17.067 12.8 29.867 12.8 29.867 0 55.467 0 85.333-8.533 21.333-8.533 42.667-4.267 64 4.267 34.133 12.8 72.533 17.067 106.667-4.267 42.667-25.6 81.067-55.467 110.933-98.133 34.133-46.933 51.2-55.467 89.6-102.4h-179.2z" />
<glyph unicode="&#xe917;" glyph-name="current_production" d="M512 960c-281.6 0-512-230.4-512-512s230.4-512 512-512 512 230.4 512 512-230.4 512-512 512zM358.4 733.867c4.267 4.267 68.267 12.8 81.067 12.8s42.667-8.533 59.733-12.8c38.4-4.267 128 21.333 162.133 8.533 4.267-4.267 17.067-21.333 17.067-29.867-17.067-29.867-34.133-55.467-64-76.8h-200.533c-21.333 21.333-46.933 46.933-68.267 72.533 0 0 8.533 21.333 12.8 25.6zM618.667 618.667v-29.867c-68.267 0-140.8 0-213.333 0 0 8.533 4.267 25.6 8.533 29.867 98.133 4.267 102.4 4.267 204.8 0zM763.733 204.8c-4.267-8.533-12.8-12.8-17.067-21.333-21.333 4.267-42.667 4.267-64 8.533-55.467-12.8-115.2-55.467-200.533-38.4-46.933 12.8-98.133 25.6-149.333 38.4-21.333 0-34.133-12.8-55.467-8.533-8.533 8.533-17.067 12.8-21.333 17.067 0 38.4 21.333 46.933 25.6 76.8 21.333 93.867 8.533 132.267 46.933 196.267 29.867 34.133 55.467 68.267 85.333 102.4h200.533c51.2-64 98.133-102.4 119.467-200.533 0-38.4 4.267-55.467 4.267-93.867 8.533-34.133 38.4-42.667 25.6-76.8z" />
<glyph unicode="&#xe918;" glyph-name="estimated_output" d="M682.667 537.6c0 12.8-8.533 17.067-17.067 17.067h-384c-12.8 0-17.067-8.533-17.067-17.067s8.533-17.067 17.067-17.067h379.733c12.8-4.267 21.333 4.267 21.333 17.067zM473.6 409.6h-162.133c-12.8 0-17.067-8.533-17.067-17.067s8.533-17.067 17.067-17.067h162.133c8.533 0 17.067 8.533 17.067 17.067s-4.267 17.067-17.067 17.067zM473.6 294.4h-162.133c-12.8 0-17.067-8.533-17.067-17.067s8.533-17.067 17.067-17.067h162.133c8.533 0 17.067 8.533 17.067 17.067s-4.267 17.067-17.067 17.067zM763.733 349.867l-64-64-25.6 34.133c-4.267 4.267-12.8 4.267-21.333 0-4.267-4.267-4.267-12.8 0-21.333l42.667-42.667c4.267-4.267 4.267-4.267 8.533-4.267s8.533 0 8.533 4.267l72.533 72.533c4.267 4.267 4.267 17.067 0 21.333-4.267 8.533-12.8 8.533-21.333 0zM512 960c-281.6 0-512-230.4-512-512s230.4-512 512-512 512 230.4 512 512-230.4 512-512 512zM264.533 179.2c-21.333 0-38.4 17.067-38.4 38.4v418.133c0 21.333 17.067 38.4 38.4 38.4h68.267v-38.4c-4.267-8.533 4.267-17.067 17.067-17.067s17.067 8.533 17.067 17.067v38.4h-38.4v38.4c0 12.8 8.533 17.067 17.067 17.067s17.067-8.533 17.067-17.067v-38.4h209.067v-38.4c0-12.8 8.533-17.067 17.067-17.067s17.067 8.533 17.067 17.067v38.4h-38.4v38.4c0 12.8 8.533 17.067 17.067 17.067s17.067-8.533 17.067-17.067v-38.4h81.067c21.333 0 38.4-17.067 38.4-38.4v-187.733c-76.8 0-140.8-64-140.8-140.8 0-51.2 29.867-98.133 72.533-123.733h-388.267zM721.067 200.533c-55.467 0-102.4 46.933-102.4 102.4s46.933 102.4 102.4 102.4 102.4-46.933 102.4-102.4c0-55.467-46.933-102.4-102.4-102.4z" />
<glyph unicode="&#xe91e;" glyph-name="daily_output" d="M535 233.333h91.667c5 0 9.167 4.167 9.167 9.167v91.667c0 5-4.167 9.167-9.167 9.167h-91.667c-5 0-9.167-4.167-9.167-9.167v-91.667c0-5 4.167-9.167 9.167-9.167zM535 393.333h91.667c5 0 9.167 4.167 9.167 9.167v90.833c0 5-4.167 9.167-9.167 9.167h-91.667c-5 0-9.167-4.167-9.167-9.167v-91.667c0-4.167 4.167-8.333 9.167-8.333zM535 73.333h91.667c5 0 9.167 4.167 9.167 9.167v91.667c0 5-4.167 9.167-9.167 9.167h-91.667c-5 0-9.167-4.167-9.167-9.167v-91.667c0-5 4.167-9.167 9.167-9.167zM809.167 233.333h91.667c5 0 9.167 4.167 9.167 9.167v91.667c0 5-4.167 9.167-9.167 9.167h-91.667c-5 0-9.167-4.167-9.167-9.167v-91.667c0-5 4.167-9.167 9.167-9.167zM809.167 393.333h91.667c5 0 9.167 4.167 9.167 9.167v90.833c0 5-4.167 9.167-9.167 9.167h-91.667c-5 0-9.167-4.167-9.167-9.167v-91.667c0-4.167 4.167-8.333 9.167-8.333zM671.667 233.333h91.667c5 0 9.167 4.167 9.167 9.167v91.667c0 5-4.167 9.167-9.167 9.167h-91.667c-5 0-9.167-4.167-9.167-9.167v-91.667c0-5 4.167-9.167 9.167-9.167zM397.5 393.333h91.667c5 0 9.167 4.167 9.167 9.167v91.667c0 5-4.167 9.167-9.167 9.167h-91.667c-5 0-9.167-4.167-9.167-9.167v-91.667c0-5 4.167-9.167 9.167-9.167zM671.667 393.333h91.667c5 0 9.167 4.167 9.167 9.167v90.833c0 5-4.167 9.167-9.167 9.167h-91.667c-5 0-9.167-4.167-9.167-9.167v-91.667c0-4.167 4.167-8.333 9.167-8.333zM260.833 393.333h91.667c5 0 9.167 4.167 9.167 9.167v91.667c0 5-4.167 9.167-9.167 9.167h-91.667c-5 0-9.167-4.167-9.167-9.167v-91.667c0-5 4.167-9.167 9.167-9.167zM123.333 393.333h91.667c5 0 9.167 4.167 9.167 9.167v91.667c0 5-4.167 9.167-9.167 9.167h-91.667c-5 0-9.167-4.167-9.167-9.167v-91.667c0-5 4.167-9.167 9.167-9.167zM123.333 233.333h91.667c5 0 9.167 4.167 9.167 9.167v91.667c0 5-4.167 9.167-9.167 9.167h-91.667c-5 0-9.167-4.167-9.167-9.167v-91.667c0-5 4.167-9.167 9.167-9.167zM123.333 73.333h91.667c5 0 9.167 4.167 9.167 9.167v91.667c0 5-4.167 9.167-9.167 9.167h-91.667c-5 0-9.167-4.167-9.167-9.167v-91.667c0-5 4.167-9.167 9.167-9.167zM923.333 868.333h-81.667v59.167c0 17.5-14.167 32.5-32.5 32.5-17.5 0-32.5-14.167-32.5-32.5v-59.167h-529.167v59.167c0 17.5-14.167 32.5-32.5 32.5s-32.5-14.167-32.5-32.5v-59.167h-81.667c-55.833 0-100.833-45-100.833-100.833v-730.833c0-55.833 45-100.833 100.833-100.833h822.5c55.833 0 100.833 45 100.833 100.833v730.833c0 55.833-45 100.833-100.833 100.833zM64.167 575.833h895v-539.167c0-20-16.667-36.667-36.667-36.667h-822.5c-20 0-36.667 16.667-36.667 36.667l0.833 539.167zM215 712.5c17.5 0 32.5 14.167 32.5 32.5v59.167h530v-59.167c0-17.5 14.167-32.5 32.5-32.5 17.5 0 32.5 14.167 32.5 32.5v59.167h81.667c20 0 36.667-16.667 36.667-36.667v-127.5h-896.667v127.5c0 20 16.667 36.667 36.667 36.667h81.667v-59.167c0-17.5 15-32.5 32.5-32.5zM260.833 73.333h91.667c5 0 9.167 4.167 9.167 9.167v91.667c0 5-4.167 9.167-9.167 9.167h-91.667c-5 0-9.167-4.167-9.167-9.167v-91.667c0-5 4.167-9.167 9.167-9.167zM397.5 73.333h91.667c5 0 9.167 4.167 9.167 9.167v91.667c0 5-4.167 9.167-9.167 9.167h-91.667c-5 0-9.167-4.167-9.167-9.167v-91.667c0-5 4.167-9.167 9.167-9.167zM260.833 233.333h91.667c5 0 9.167 4.167 9.167 9.167v91.667c0 5-4.167 9.167-9.167 9.167h-91.667c-5 0-9.167-4.167-9.167-9.167v-91.667c0-5 4.167-9.167 9.167-9.167zM397.5 233.333h91.667c5 0 9.167 4.167 9.167 9.167v91.667c0 5-4.167 9.167-9.167 9.167h-91.667c-5 0-9.167-4.167-9.167-9.167v-91.667c0-5 4.167-9.167 9.167-9.167z" />
<glyph unicode="&#xe91f;" glyph-name="duration" d="M189.167 418.333h92.5v-31.667h-92.5v31.667zM522.5 447.5c8.333 0 16.667-1.667 24.167-5.833 28.333 34.167 60.833 65.833 96.667 92.5 9.167-8.333 17.5-16.667 26.667-25-27.5-40.833-58.333-75.833-92.5-106.667 0.833-3.333 0.833-7.5 0.833-10.833 0-30.833-25-55.833-55.833-55.833s-55.833 25-55.833 55.833c0 11.667 3.333 22.5 10 31.667-41.667 55.833-76.667 115.833-105 180 9.167 5 18.333 10 28.333 15 40.833-55.833 77.5-113.333 106.667-173.333 5 1.667 10.833 2.5 15.833 2.5v0 0zM443.333 751.667v-95l263.333 150.833-263.333 152.5v-97.5c-99.167-15-190-60.833-260.833-131.667-87.5-87.5-135.833-205-135.833-329.167s49.167-241.667 136.667-329.167c87.5-87.5 205.833-136.667 329.167-136.667 124.167 0 241.667 49.167 329.167 136.667 52.5 52.5 91.667 115.833 114.167 186.667l5 16.667-104.167 30.833-5-15.833c-17.5-53.333-47.5-101.667-86.667-141.667-67.5-67.5-157.5-104.167-252.5-104.167s-185 37.5-252.5 104.167c-67.5 67.5-105 157.5-105 252.5s37.5 185 104.167 252.5c50.833 50 114.167 84.167 184.167 97.5v0 0zM865 455c-3.333 22.5-9.167 45-16.667 66.667l-5.833 15.833 101.667 38.333 5.833-16.667c11.667-31.667 19.167-64.167 23.333-97.5l2.5-18.333-109.167-4.167-1.667 15.833zM862.5 336.667c4.167 21.667 5.833 43.333 5.833 65 0 2.5 0 4.167 0 6.667v16.667l108.333 4.167v-17.5c0-3.333 0-6.667 0-10 0-31.667-3.333-62.5-9.167-93.333l-3.333-18.333-105 30.833 3.333 15.833zM829.167 565.833c-9.167 18.333-20.833 35.833-33.333 52.5l-10 13.333 85.833 67.5 10.833-14.167c18.333-24.167 35-50.833 48.333-77.5l8.333-16.667-103.333-39.167-6.667 14.167zM775 643.333l-10.833 10.833c-15.833 15.833-33.333 30-51.667 42.5l-15 10 68.333 85.833 13.333-9.167c22.5-15.833 43.333-33.333 62.5-52.5 2.5-2.5 4.167-4.167 6.667-6.667l13.333-14.167-86.667-66.667zM512.5 85v92.5h31.667v-92.5h-31.667zM745.833 177.5l-65.833 65.833 22.5 22.5 65-65.833-21.667-22.5zM281.667 185l65.833 65 22.5-22.5-65.833-65.833-22.5 23.333zM289.167 649.167l65.833-65.833-22.5-22.5-65.833 65.833 22.5 22.5zM753.333 641.667l-22.5 22.5-65.833-65.833 22.5-22.5 65.833 65.833zM845.833 407.5h-92.5v31.667h92.5v-31.667z" />
<glyph unicode="&#xe920;" glyph-name="sandglass" d="M729.167 448.333c137.5 86.667 230.833 255 230.833 447.5 0 2.5 0 4.167 0 6.667 0 31.667-26.667 57.5-58.333 57.5h-779.167c-31.667 0-57.5-25.833-58.333-57.5 0-2.5 0-4.167 0-6.667 0-192.5 93.333-360.833 230.833-448.333-137.5-86.667-230.833-255-230.833-447.5 0-2.5 0-4.167 0-6.667 0-31.667 26.667-57.5 58.333-57.5h779.167c31.667 0 57.5 25.833 58.333 57.5 0 2.5 0 4.167 0 6.667 0 192.5-93.333 360.833-230.833 448.333zM161.667 60.833c10.833 148.333 75 263.333 184.167 320 23.333 12.5 38.333 36.667 38.333 63.333v7.5c0 27.5-15.833 51.667-40 64.167-108.333 55.833-171.667 164.167-182.5 310-1.667 24.167 17.5 45 41.667 45h617.5c24.167 0 43.333-20.833 41.667-45-10.833-145.833-75-254.167-182.5-310-24.167-12.5-40-36.667-40-64.167v-7.5c0-26.667 15-50.833 38.333-63.333 109.167-56.667 173.333-171.667 184.167-320 1.667-24.167-17.5-45-41.667-45h-617.5c-24.167 0.833-43.333 20.833-41.667 45zM620 290c-71.667 40.833-75.833 93.333-75.833 125v64.167c0 31.667 4.167 85 75.833 125.833 38.333 23.333 71.667 56.667 96.667 99.167h-409.167c25-41.667 58.333-75.833 97.5-98.333 71.667-40.833 75.833-93.333 75.833-125v-64.167c0-31.667-4.167-85-75.833-125.833-72.5-42.5-111.667-78.333-127.5-178.333h470.833c-17.5 100-55.833 135.833-128.333 177.5z" />
<glyph unicode="&#xe921;" glyph-name="task" d="M903.333 819.167h-105v-173.333h-574.167v173.333h-104.167c-21.667 0-39.167-17.5-39.167-39.167v-805c0-21.667 17.5-39.167 39.167-39.167h783.333c21.667 0 39.167 17.5 39.167 39.167v805c0 21.667-17.5 39.167-39.167 39.167zM816.667 483.333l-340-415.833c1.667-5-5.833-5.833-11.667-1.667l-246.667 202.5c-5 4.167-5.833 11.667-1.667 16.667l40.833 50.833c4.167 5 11.667 5.833 16.667 1.667l187.5-155 290.833 355.833c4.167 7.5 11.667 8.333 16.667 4.167l48.333-39.167c5.833-5 8.333-9.167-0.833-20zM659.167 870v31.667c0 32.5-25.833 58.333-58.333 58.333h-177.5c-32.5 0-58.333-25.833-58.333-58.333v-31.667h-69.167v-158.333h430.833v158.333h-67.5zM512.5 770c-35.833 0-65 29.167-65 65s29.167 65 65 65 65-29.167 65-65c-0.833-41.667-30-65-65-65z" />
<glyph unicode="&#xe922;" glyph-name="current_production_p" d="M95 248.333c25.833 46.667 75 78.333 131.667 78.333 83.333 0 151.667-67.5 151.667-150.833h265c0 83.333 67.5 150.833 151.667 150.833 53.333 0 100-28.333 127.5-70l62.5 372.5h-985l95-380.833zM75.833 62.5h870.833v-75.833h-870.833c0 0 0 75.833 0 75.833zM340.833 175.833c0 62.5-50.833 113.333-113.333 113.333s-113.333-50.833-113.333-113.333c0-62.5 50.833-113.333 113.333-113.333s113.333 50.833 113.333 113.333zM908.333 175.833c0 62.5-50.833 113.333-114.167 113.333-62.5 0-113.333-50.833-113.333-113.333s50.833-113.333 113.333-113.333c63.333 0 114.167 50.833 114.167 113.333zM908.333 743.333c13.333 100-75.833 113.333-75.833 113.333-20.833 12.5-151.667 0-151.667 0-86.667 118.333-151.667 0-151.667 0h-112.5c-71.667 35-37.5-75.833-37.5-75.833h-75.833c-55.833 37.5-114.167-37.5-114.167-37.5-14.167 62.5-37.5 0-37.5 0-105 14.167-151.667-75.833-151.667-75.833h1021.667c20 122.5-113.333 75.833-113.333 75.833z" />
<glyph unicode="&#xe923;" glyph-name="pattern" d="M854.167 625c-54.167-64.167-294.167-188.333-294.167-188.333s80.833 256.667 135 321.667 134.167 87.5 178.333 50.833c44.167-37.5 35.833-119.167-19.167-184.167zM890 357.5c-83.333-14.167-346.667 44.167-346.667 44.167s227.5 145 310.833 160c83.333 15 159.167-19.167 169.167-75.833 9.167-55.833-50-113.333-133.333-128.333zM745 130c-73.333 42.5-237.5 256.667-237.5 256.667s268.333-35 341.667-76.667c73.333-42.5 109.167-116.667 80.833-165.833-29.167-50.833-111.667-56.667-185-14.167zM486.667 48.333c-29.167 79.167-16.667 348.333-16.667 348.333s183.333-198.333 211.667-277.5c29.167-79.167 8.333-159.167-45-179.167-53.333-19.167-120.833 29.167-150 108.333zM236.667 151.667c29.167 79.167 211.667 277.5 211.667 277.5s12.5-269.167-16.667-348.333-95.833-127.5-150-108.333c-53.333 19.167-73.333 100-45 179.167zM111.667 390.833c73.333 42.5 341.667 76.667 341.667 76.667s-164.167-214.167-237.5-256.667c-73.333-42.5-155.833-35.833-185 13.333-28.333 50 7.5 124.167 80.833 166.667zM170 654.167c83.333-15 310.833-160 310.833-160s-263.333-59.167-346.667-44.167-143.333 72.5-133.333 128.333 85.833 90.833 169.167 75.833zM384.167 818.333c54.167-65 135-321.667 135-321.667s-239.167 124.167-294.167 188.333-62.5 146.667-19.167 183.333 124.167 15 178.333-50zM655 807.5c0-84.167-104.167-333.333-104.167-333.333s-104.167 249.167-104.167 333.333 46.667 152.5 104.167 152.5 104.167-68.333 104.167-152.5z" />
<glyph unicode="&#xe924;" glyph-name="number" d="M669.867 960h-669.867v-669.867h119.467v550.4h550.4v119.467zM827.733 802.133h-669.867v-669.867h157.867v512h512v157.867zM354.133 605.867v-669.867h669.867v669.867h-669.867zM746.667 93.867h-76.8v238.933h-76.8v76.8c0 0 76.8 12.8 76.8 76.8v4.267c0 0 0 0 0 0v0h76.8v-396.8z" />
</font>
</defs>
</svg>
