<?xml version="1.0" encoding="utf-8"?>
<!-- Generator: Adobe Illustrator 19.2.1, SVG Export Plug-In . SVG Version: 6.00 Build 0)  -->
<svg version="1.1" id="图层_1" xmlns="http://www.w3.org/2000/svg" xmlns:xlink="http://www.w3.org/1999/xlink" x="0px" y="0px"
	 viewBox="0 0 78 32" style="enable-background:new 0 0 78 32;" xml:space="preserve">
<style type="text/css">
	.st0{fill:#FFFFFF;}
</style>
<g>
	<path class="st0" d="M32,11.3C32,11.2,32,11.2,32,11.3c-0.1-0.3-0.1-0.4-0.2-0.6c0,0,0-0.1,0-0.1c-0.1-0.2-0.1-0.4-0.2-0.6
		c0-0.1-0.1-0.2-0.1-0.3c-0.1-0.1-0.1-0.2-0.2-0.2c-0.2-0.1-0.3-0.2-0.5-0.2l-2.7-0.4c-0.2,0-0.4-0.1-0.5-0.2
		c-0.1-0.1-0.2-0.2-0.2-0.3c-0.5-0.7-1-1.4-1.6-2c-0.2-0.2-0.3-0.5-0.3-0.9l0.2-2.7c0-0.2,0-0.4-0.1-0.6c-0.1-0.1-0.2-0.2-0.3-0.3
		c0,0-0.1-0.1-0.1-0.1c-0.7-0.5-1.5-0.9-2.3-1.2c-0.5-0.2-0.9-0.4-1.4-0.6C21.3,0,21.1,0,20.9,0c-0.2,0-0.4,0.1-0.5,0.3l-2,1.8
		c0,0-0.1,0.1-0.1,0.1c-0.1,0.1-0.2,0.1-0.3,0.2c-0.1,0-0.2,0-0.3,0l0,0c0,0-0.1,0-0.1,0c-0.3,0-0.6-0.1-0.9-0.1c-0.1,0-0.2,0-0.3,0
		c-0.1,0-0.2,0-0.3,0c-0.3,0-0.6,0-0.9,0.1c0,0-0.1,0-0.1,0l0,0c-0.2,0-0.4-0.1-0.6-0.2c-0.1,0-0.1-0.1-0.2-0.1l-2-1.8
		c0,0-0.1-0.1-0.1-0.1C12,0.1,11.9,0.1,11.8,0c0,0-0.1,0-0.1,0c-0.1,0-0.3,0-0.4,0c-0.1,0-0.1,0-0.2,0c-0.5,0.2-1,0.4-1.4,0.6
		C8.9,1,8.1,1.4,7.4,1.9C7.3,1.9,7.2,2,7.2,2.1l0,0C7.1,2.2,7,2.4,6.9,2.6c0,0.1,0,0.2,0,0.3l0.2,2.7c0,0.1,0,0.2,0,0.3
		c0,0.2-0.1,0.4-0.3,0.5C6.5,6.7,6.2,7,5.9,7.3C5.7,7.7,5.4,8,5.2,8.4c0,0,0,0.1-0.1,0.1c0,0-0.1,0.1-0.1,0.1c0,0-0.1,0.1-0.1,0.1
		c-0.1,0-0.1,0.1-0.2,0.1c-0.1,0-0.2,0-0.2,0.1L1.8,9.3c-0.1,0-0.2,0-0.3,0.1C1.4,9.4,1.3,9.5,1.1,9.6C1.1,9.7,1,9.8,0.9,10
		c-0.1,0.2-0.1,0.3-0.2,0.5C0.4,11.6,0.1,12.8,0,14c0,0.2,0,0.5,0.2,0.7c0.1,0.1,0.2,0.2,0.3,0.3l2.2,1.5C2.9,16.6,3,16.8,3.1,17
		c0.1,0.1,0.1,0.2,0.1,0.3c0.1,0.8,0.3,1.7,0.6,2.5c0,0.1,0.1,0.2,0.1,0.3c0,0,0,0.1,0,0.1c0,0.2-0.1,0.3-0.1,0.4L2.3,23
		c-0.2,0.3-0.2,0.8,0,1.1c0.7,1.2,1.6,2.3,2.6,3.2c0.2,0.2,0.4,0.3,0.6,0.3c0.1,0,0.1,0,0.2,0c0.1,0,0.2,0,0.3,0l2.6-0.8
		c0.3-0.1,0.6,0,0.9,0.1c0.7,0.4,1.5,0.8,2.3,1.1c0.3,0.1,0.5,0.3,0.6,0.6l1,2.5c0.2,0.4,0.5,0.6,0.9,0.7c0.7,0.1,1.4,0.1,2.1,0.1
		c0.7,0,1.4,0,2.1-0.1c0.4-0.1,0.7-0.3,0.9-0.7l1-2.5c0.1-0.3,0.4-0.5,0.6-0.6c0.8-0.3,1.6-0.7,2.3-1.1c0.3-0.2,0.6-0.2,0.9-0.1
		l2.6,0.8c0.4,0.1,0.8,0,1.1-0.3c1-1,1.8-2,2.6-3.2c0.2-0.3,0.2-0.8,0-1.1l-1-1.7c-0.2,0.3-0.3,0.6-0.6,0.9
		c-2.3,2.7-6.7,4.4-10.7,4.4c-3.3,0-6.4-1-8.6-2.9l0,0c-0.6-0.5-1.1-1.1-1.6-1.7l0,0c-0.1-0.1-0.1-0.2-0.2-0.2l0,0
		c-0.1-0.1-0.1-0.2-0.2-0.2c0,0,0,0,0,0c0-0.1-0.1-0.1-0.1-0.2c0,0,0,0,0,0c0-0.1-0.1-0.1-0.1-0.2c0,0,0,0,0,0
		c0-0.1-0.1-0.1-0.1-0.2c0,0,0,0,0-0.1c0-0.1-0.1-0.1-0.1-0.2c0,0,0,0,0-0.1c0-0.1-0.1-0.1-0.1-0.2c0,0,0,0,0-0.1
		c0-0.1-0.1-0.1-0.1-0.2c0,0,0-0.1,0-0.1c0-0.1-0.1-0.1-0.1-0.2c0,0,0-0.1,0-0.1c0-0.1-0.1-0.1-0.1-0.2c0,0,0-0.1,0-0.1
		c0-0.1-0.1-0.1-0.1-0.2c0,0,0-0.1,0-0.1c0-0.1,0-0.1-0.1-0.2c0,0,0-0.1,0-0.1c0-0.1,0-0.1-0.1-0.2c0,0,0-0.1,0-0.1
		c0-0.1,0-0.1-0.1-0.2c0,0,0-0.1,0-0.1c0-0.1,0-0.1,0-0.2c0,0,0-0.1,0-0.1c0-0.1,0-0.1,0-0.2c0,0,0-0.1,0-0.1c0-0.1,0-0.1,0-0.2
		c0,0,0-0.1,0-0.1c0-0.1,0-0.1,0-0.2c0,0,0-0.1,0-0.1c0-0.1,0-0.1,0-0.2c0,0,0-0.1,0-0.1c0-0.1,0-0.1,0-0.2c0,0,0-0.1,0-0.1
		c0-0.1,0-0.1,0-0.2c0,0,0-0.1,0-0.1c0-0.1,0-0.1,0-0.2c0,0,0-0.1,0-0.1c0-0.1,0-0.2,0-0.2c0,0,0-0.1,0-0.1c0-0.1,0-0.2,0-0.4l0,0
		c0-0.8,0.1-1.5,0.3-2.3c0-0.2,0.1-0.3,0.1-0.5c0.2-0.7,0.6-1.3,1-1.8c0.1-0.1,0.2-0.2,0.3-0.3c0.1,0,0.1-0.1,0.2-0.1
		c0.5-0.4,1-0.6,1.6-0.6c0-0.9,0.3-1.7,0.7-2.4c0.1-0.1,0.1-0.2,0.2-0.2C10.4,6,11.1,5.4,12,5c1.2-0.6,2.7-1,4.1-1
		c0.5,0,0.9,0,1.4,0.1c0.4,0.1,0.9,0.2,1.3,0.3c0.1,0,0.2,0.1,0.3,0.1c0.9,0.3,1.8,0.8,2.4,1.3c0.5,0.4,0.9,1,1.3,1.5
		c0.1,0.2,0.2,0.3,0.2,0.5c0.2,0.4,0.2,0.9,0.2,1.4c0.1,0,0.1,0,0.2,0c0,0,0,0,0.1,0c0,0,0.1,0,0.1,0c0,0,0,0,0.1,0c0,0,0.1,0,0.1,0
		s0,0,0.1,0c0,0,0.1,0,0.1,0c0,0,0,0,0.1,0c0,0,0.1,0,0.1,0c0,0,0,0,0,0c0.1,0,0.1,0,0.2,0.1c0,0,0,0,0.1,0c0,0,0.1,0,0.1,0.1
		c0,0,0,0,0.1,0c0,0,0.1,0,0.1,0.1c0,0,0,0,0.1,0c0,0,0.1,0,0.1,0.1c0,0,0,0,0.1,0c0,0,0.1,0.1,0.1,0.1c0,0,0,0,0,0
		c0,0,0.1,0.1,0.1,0.1c0,0,0,0,0.1,0c0,0,0.1,0.1,0.1,0.1c0,0,0,0,0.1,0.1c0,0,0,0,0.1,0.1c0,0,0,0,0.1,0.1c0,0,0,0.1,0.1,0.1
		c0,0,0,0,0.1,0.1c0,0,0,0.1,0.1,0.1c0,0,0,0,0.1,0.1c0,0,0.1,0.1,0.1,0.1c0,0,0,0.1,0.1,0.1s0,0,0,0.1c0,0,0,0.1,0.1,0.1
		c0,0,0,0,0,0.1c0,0,0,0.1,0.1,0.1c0,0,0,0,0,0.1c0,0,0,0.1,0.1,0.1c0,0,0,0,0,0.1c0.1,0.1,0.1,0.3,0.2,0.4c0,0,0,0,0,0
		c0,0,0,0.1,0,0.1c0,0,0,0,0,0.1c0,0,0,0.1,0,0.1c0,0,0,0,0,0.1c0,0,0,0.1,0,0.1c0,0,0,0,0,0c0,0.2,0.1,0.3,0.1,0.5l0,0
		c0.1,0.4,0.1,0.7,0.1,1.1c0,2.8-2.3,6.8-7.6,6.8c-2.4,0-4.1-0.9-5.2-2l0,0c-0.2-0.2-0.5-0.5-0.6-0.8l0,0c0-0.1-0.1-0.1-0.1-0.2
		c0,0,0,0,0,0c0-0.1-0.1-0.1-0.1-0.2c0,0,0,0,0-0.1c0,0-0.1-0.1-0.1-0.1c0,0,0,0,0-0.1c0,0,0-0.1-0.1-0.1c0,0,0-0.1,0-0.1
		c0,0,0-0.1-0.1-0.1c0,0,0-0.1,0-0.1c0,0,0-0.1,0-0.1c0,0,0-0.1,0-0.1c0,0,0-0.1,0-0.1c0,0,0-0.1,0-0.1c0,0,0-0.1,0-0.1
		c0,0,0-0.1,0-0.1c0,0,0-0.1,0-0.1c0,0,0-0.1,0-0.1c0,0,0-0.1,0-0.1c0,0,0-0.1,0-0.1c0,0,0,0,0-0.1c0-0.1,0-0.1,0-0.2
		c-0.1-1.6,0.4-2.9,1.2-3.8c0.6-0.6,1.5-1.1,2.4-1.2c0.1,0,0.2,0,0.2,0c0.2,0,0.3,0,0.5,0c0.1,0,0.2,0,0.3,0c0.6,0,1.5,0.4,1.8,1.2
		c0.1,0.2,0.2,0.5,0.2,0.9c0,0.2,0,0.4-0.1,0.6c-0.1,0.3-0.2,0.6-0.5,0.8c-0.1,0.1-0.2,0.2-0.4,0.4c-0.1,0.1-0.1,0.1-0.2,0.2
		c-0.2,0.1-0.3,0.2-0.5,0.3c-0.4,0.2-0.8,0.3-1.3,0.4c0,0-0.1,0-0.1,0c-0.1,0-0.2,0.1-0.3,0.1c-0.1,0.1-0.2,0.1-0.3,0.2
		c-0.1,0.1-0.2,0.3-0.2,0.6c0,0.4,0.2,0.8,1.1,0.8l0,0c0,0,0,0,0,0l0,0c1.6,0.1,4.1-0.7,5-2.7l0,0c0,0,0-0.1,0-0.1
		c0-0.1,0-0.1,0.1-0.2c0-0.1,0-0.1,0.1-0.2c0,0,0-0.1,0-0.1c0,0,0-0.1,0-0.1c0,0,0-0.1,0-0.1c0-0.1,0-0.1,0-0.2c0,0,0-0.1,0-0.1
		c0-0.1,0-0.1,0-0.2c0,0,0-0.1,0-0.1c0-0.1,0-0.1,0-0.2c0,0,0-0.1,0-0.1c0-0.1,0-0.2,0-0.3c0-1.7-1.4-4.3-5-4.3c-1,0-2.1,0.3-3,0.8
		c-0.2,0.1-0.4,0.2-0.6,0.3c-0.1,0.1-0.2,0.1-0.3,0.2c-0.2,0.1-0.4,0.3-0.5,0.4c-0.3,0.3-0.7,0.6-1,1c-0.2,0.2-0.3,0.4-0.4,0.6
		c-0.3,0.4-0.5,0.8-0.7,1.3c-0.1,0.2-0.2,0.5-0.2,0.7c0,0.1-0.1,0.2-0.1,0.4c-0.1,0.2-0.1,0.5-0.1,0.8s0,0.5-0.1,0.8
		c0,0.2,0,0.3,0,0.5c0,0.1,0,0.1,0,0.2c0,0.1,0,0.2,0,0.3c0,0.1,0,0.1,0,0.2c0,0.1,0,0.2,0,0.3c0,0.1,0,0.1,0,0.2
		c0,0.1,0,0.2,0.1,0.3c0,0,0,0.1,0,0.1c0,0.1,0.1,0.3,0.1,0.4c0,0,0,0.1,0,0.1c0,0.1,0.1,0.2,0.1,0.3c0,0.1,0,0.1,0.1,0.2
		c0,0.1,0.1,0.2,0.1,0.2c0,0.1,0,0.1,0.1,0.2c0,0.1,0.1,0.1,0.1,0.2c0,0.1,0.1,0.1,0.1,0.2c0,0.1,0.1,0.1,0.1,0.2
		c0,0.1,0.1,0.1,0.1,0.2c0.1,0.1,0.1,0.2,0.2,0.3c0,0.1,0.1,0.1,0.1,0.2c0,0.1,0.1,0.1,0.1,0.2c0,0.1,0.1,0.1,0.1,0.2
		c0,0.1,0.1,0.1,0.1,0.2s0.1,0.1,0.1,0.2c0,0.1,0.1,0.1,0.1,0.2c0,0.1,0.1,0.1,0.1,0.2c0,0,0,0,0,0l0,0c0.3,0.3,0.6,0.6,0.9,0.9
		c1.4,1.2,3.9,2.2,6.8,2.2c3,0,6.2-0.7,9.2-4c0.2-0.2,0.4-0.7,0.7-1.9c0-0.2,0.1-0.4,0.1-0.6c0-0.3,0.2-0.6,0.5-0.8l2.2-1.5
		c0.3-0.2,0.5-0.6,0.5-1C32.4,13.1,32.3,12.1,32,11.3z"/>
	<path class="st0" d="M55.9,12.5l0.9-2.1h-0.1h-5.8V9.7V6.4h5l0.9-2h-2.1l1.1-1h-3.7l-1.3,1h-7.8l-1-0.9h-3.5l1.1,0.9h-1.8v2H43v4
		h-5.7v2.1h4.4H55.9z M46.2,6.4h1.5v3.7v0.6h-1.5v-0.2V6.4z"/>
	<path class="st0" d="M38.1,13.1v3v5.3l14.2,0l3.4-2.1l0-6.2H40.9L38.1,13.1L38.1,13.1z M41.5,18.2h9.7l0.9-1.9H41.5V15h10.8l0,4.3
		H41.5L41.5,18.2L41.5,18.2z"/>
	<polygon class="st0" points="40.7,7.1 37.7,7.1 39.7,9.7 42.7,9.7 	"/>
	<polygon class="st0" points="51.3,9.7 54.3,9.7 56.3,7.1 53.3,7.1 	"/>
	<polygon class="st0" points="78,21.6 71.8,18.2 76.6,18.2 77.8,16.4 70.3,16.4 70.3,15.5 66.3,15.5 66.3,16.4 59.2,16.4 59.2,18.2 
		64.7,18.2 58.6,21.6 64.3,21.6 68.3,19.3 72.1,21.6 	"/>
	<polygon class="st0" points="70.8,14.3 73.4,14.3 72.8,11.4 70.3,11.4 	"/>
	<polygon class="st0" points="63.2,12.3 63.2,6.1 73.8,6.1 73.8,9.8 73.8,15.8 77.2,14.6 77.2,10.3 77.2,4.2 67,4.2 67.3,3.6 
		62.9,3.6 62.6,4.2 59.7,4.2 59.7,15.4 59.7,15.9 63.2,14.7 	"/>
	<polygon class="st0" points="70.9,6.7 70.2,8.6 72.6,8.6 73.3,6.7 	"/>
	<polygon class="st0" points="69.9,9.1 69.9,6.6 66.8,6.6 66.8,9.1 63.6,9.1 63.6,10.9 66.2,10.9 66.8,10.9 66.8,15.1 69.9,14.1 
		69.9,10.9 72.2,10.9 73.5,9.1 	"/>
	<polygon class="st0" points="66.5,8.6 65.9,6.7 63.5,6.7 64.1,8.6 	"/>
	<polygon class="st0" points="64.2,11.4 63.5,14.3 66.1,14.3 66.6,11.4 65,11.4 	"/>
	<path class="st0" d="M39.9,24.1h-2.6v4.6h0.9v-4.2h1.2c0.2,0,0.4,0.1,0.5,0.4c0.1,0.2,0.1,0.4,0.1,0.6c0,0.2,0,0.4-0.1,0.6
		c-0.1,0.2-0.3,0.4-0.5,0.4h-0.8v0.4h1.3c0.4,0,0.6-0.2,0.8-0.5c0.1-0.2,0.2-0.5,0.2-0.9s-0.1-0.6-0.2-0.9
		C40.6,24.3,40.3,24.1,39.9,24.1z"/>
	<path class="st0" d="M41.5,26.1v2.6h0.9v-2.5c0-0.3,0-0.5,0.1-0.6c0.1-0.1,0.3-0.2,0.7-0.2h0.5V25h-0.6C42,25,41.5,25.4,41.5,26.1z
		"/>
	<path class="st0" d="M47.1,25.1h-1.6c-0.5,0-0.8,0.1-0.9,0.3c-0.1,0.2-0.2,0.4-0.2,0.8v1.3c0,0.4,0.1,0.6,0.2,0.8
		c0.2,0.2,0.5,0.3,0.9,0.3h1.6c0.5,0,0.8-0.1,0.9-0.3c0.1-0.2,0.2-0.4,0.2-0.8v-1.3c0-0.4-0.1-0.6-0.2-0.8
		C47.9,25.2,47.6,25.1,47.1,25.1z M47.3,27.6c0,0.3,0,0.4-0.1,0.5c-0.1,0.1-0.3,0.2-0.6,0.2h-0.5c-0.2,0-0.4-0.1-0.6-0.3
		c-0.1-0.2-0.2-0.3-0.2-0.5v-1.3c0-0.2,0-0.4,0.1-0.5c0.1-0.2,0.2-0.2,0.5-0.2h0.8c0.2,0,0.4,0.1,0.5,0.2c0.1,0.1,0.1,0.3,0.1,0.5
		L47.3,27.6L47.3,27.6z"/>
	<path class="st0" d="M52.1,28.3h-1.3c-0.3,0-0.4-0.1-0.5-0.3c-0.1-0.1-0.1-0.3-0.1-0.5v-2.4h-0.9v2.6c0,0.4,0.1,0.6,0.2,0.8
		c0.2,0.2,0.5,0.3,0.9,0.3H53v-3.6h-0.9L52.1,28.3L52.1,28.3z"/>
	<path class="st0" d="M56.3,28.3c-0.1,0-0.2,0-0.4,0c-0.2,0-0.3,0-0.4,0c-0.4,0-0.7-0.1-0.9-0.3c-0.1-0.1-0.1-0.4-0.1-0.9v-0.9
		c0-0.2,0-0.4,0.1-0.5c0.1-0.2,0.3-0.3,0.5-0.3h0.7v-0.4h-1.1c-0.5,0-0.8,0.1-0.9,0.4c-0.1,0.2-0.2,0.5-0.2,0.8v1.2
		c0,0.4,0.1,0.7,0.2,0.8c0.2,0.2,0.5,0.4,0.9,0.4h2.4v-4.6h-0.9L56.3,28.3L56.3,28.3z"/>
	<path class="st0" d="M60.7,26.6h-1.5c-0.1,0-0.2-0.1-0.3-0.2c-0.1-0.1-0.1-0.2-0.1-0.3s0-0.2,0.1-0.3c0.1-0.2,0.2-0.2,0.3-0.2h1.7
		v-0.4h-2c-0.3,0-0.5,0.1-0.7,0.3c-0.1,0.2-0.2,0.4-0.2,0.6c0,0.2,0.1,0.5,0.2,0.7c0.2,0.3,0.4,0.4,0.6,0.4h1.4
		c0.2,0,0.3,0.1,0.3,0.2c0.1,0.1,0.1,0.2,0.1,0.4c0,0.1,0,0.3-0.1,0.4c-0.1,0.2-0.2,0.2-0.3,0.2h-1.9v0.4h2.4c0.3,0,0.5-0.1,0.6-0.4
		c0.1-0.2,0.1-0.4,0.1-0.6s-0.1-0.5-0.2-0.7C61.1,26.7,60.9,26.6,60.7,26.6z"/>
	<path class="st0" d="M66.7,25.1H62v3.6h0.9v-3.2h1.5v3.2h0.9v-3.2h1c0.3,0,0.4,0.1,0.5,0.3c0,0.1,0.1,0.3,0.1,0.5v2.4h0.9v-2.6
		c0-0.4-0.1-0.6-0.2-0.8C67.4,25.2,67.1,25.1,66.7,25.1z"/>
	<path class="st0" d="M71.1,25.1h-1.5v0.4h1.2c0.2,0,0.4,0.1,0.5,0.2c0.1,0.1,0.1,0.2,0.1,0.4v2.3H70c-0.2,0-0.3-0.1-0.3-0.3
		c-0.1-0.1-0.1-0.3-0.1-0.4c0-0.3,0.1-0.5,0.2-0.6c0.1-0.1,0.3-0.1,0.5-0.1c0.1,0,0.1,0,0.3,0s0.2,0,0.3,0v-0.4h-1.2
		c-0.3,0-0.6,0.1-0.7,0.4c-0.1,0.2-0.2,0.4-0.2,0.7c0,0.3,0.1,0.5,0.2,0.7c0.2,0.2,0.4,0.4,0.7,0.4h2.5v-2.6c0-0.4-0.1-0.6-0.2-0.8
		C71.9,25.2,71.6,25.1,71.1,25.1z"/>
	<path class="st0" d="M73.3,26.1v2.6h0.9v-2.5c0-0.3,0-0.5,0.1-0.6c0.1-0.1,0.3-0.2,0.7-0.2h0.5V25h-0.6
		C73.8,25,73.3,25.4,73.3,26.1z"/>
	<path class="st0" d="M76.8,24.1h-0.9v3.7c0,0.4,0.1,0.6,0.2,0.7s0.4,0.2,0.9,0.2h0.7v-0.4c-0.4,0-0.6,0-0.7-0.1
		c-0.1-0.1-0.2-0.3-0.2-0.6v-2.2H78v-0.4h-1.2V24.1z"/>
</g>
</svg>
